<svg width="28" height="28" viewBox="0 0 28 28" fill="none" xmlns="http://www.w3.org/2000/svg">
<path d="M7 9.33337C7 7.47686 7.7375 5.69638 9.05025 4.38363C10.363 3.07087 12.1435 2.33337 14 2.33337C15.8565 2.33337 17.637 3.07087 18.9497 4.38363C20.2625 5.69638 21 7.47686 21 9.33337C21 17.5 24.5 19.8334 24.5 19.8334H3.5C3.5 19.8334 7 17.5 7 9.33337Z" stroke="#E2E8F0" stroke-width="2.75" stroke-linecap="round" stroke-linejoin="round"/>
<path d="M12.0166 24.5C12.2119 24.8552 12.499 25.1514 12.8478 25.3577C13.1967 25.564 13.5946 25.6729 13.9999 25.6729C14.4053 25.6729 14.8031 25.564 15.152 25.3577C15.5009 25.1514 15.788 24.8552 15.9833 24.5" stroke="#E2E8F0" stroke-width="2.75" stroke-linecap="round" stroke-linejoin="round"/>
</svg>
