<svg width="31" height="30" viewBox="0 0 31 30" fill="none" xmlns="http://www.w3.org/2000/svg">
<path d="M9.32204 13.6337C9.00928 13.0891 8.5185 12.6604 7.92674 12.415C7.33499 12.1695 6.67575 12.1211 6.05251 12.2775C5.42928 12.4338 4.87733 12.786 4.4833 13.2787C4.08928 13.7715 3.87549 14.3769 3.87549 15C3.87549 15.6231 4.08928 16.2285 4.4833 16.7212C4.87733 17.214 5.42928 17.5662 6.05251 17.7225C6.67575 17.8788 7.33499 17.8305 7.92674 17.585C8.5185 17.3395 9.00928 16.9108 9.32204 16.3662M9.32204 13.6337C9.55454 14.0387 9.68758 14.5037 9.68758 15C9.68758 15.4962 9.55454 15.9625 9.32204 16.3662M9.32204 13.6337L21.6781 6.99124M9.32204 16.3662L21.6781 23.0087M21.6781 6.99124C21.8593 7.32141 22.1066 7.61332 22.4057 7.8499C22.7048 8.08648 23.0497 8.26298 23.4201 8.36908C23.7905 8.47519 24.179 8.50877 24.563 8.46785C24.947 8.42694 25.3187 8.31236 25.6564 8.13081C25.994 7.94927 26.2909 7.70439 26.5297 7.4105C26.7684 7.11662 26.9442 6.77962 27.0468 6.41922C27.1494 6.05881 27.1768 5.68223 27.1272 5.31148C27.0776 4.94074 26.9522 4.58327 26.7582 4.25999C26.376 3.62291 25.7507 3.15641 25.0168 2.96075C24.2829 2.7651 23.499 2.85592 22.8336 3.21368C22.1681 3.57144 21.6743 4.16759 21.4582 4.87398C21.2422 5.58037 21.3211 6.34059 21.6781 6.99124ZM21.6781 23.0087C21.4927 23.3317 21.3749 23.6869 21.3313 24.0539C21.2877 24.4209 21.3193 24.7927 21.4242 25.1479C21.5291 25.5032 21.7052 25.835 21.9426 26.1243C22.18 26.4137 22.4739 26.6549 22.8077 26.8344C23.1414 27.0138 23.5084 27.1278 23.8877 27.17C24.267 27.2122 24.6511 27.1816 25.0182 27.0801C25.3853 26.9786 25.7281 26.8081 26.0271 26.5784C26.3261 26.3487 26.5754 26.0642 26.7608 25.7412C27.1353 25.089 27.2266 24.3195 27.0148 23.602C26.8029 22.8846 26.3053 22.278 25.6313 21.9156C24.9573 21.5533 24.1621 21.4649 23.4208 21.6699C22.6794 21.8749 22.0526 22.3565 21.6781 23.0087Z" stroke="#F8FAFC" stroke-width="2" stroke-linecap="round" stroke-linejoin="round"/>
</svg>
