<svg width="28" height="28" viewBox="0 0 28 28" fill="none" xmlns="http://www.w3.org/2000/svg">
<path d="M18.6666 24.5V22.1667C18.6666 20.929 18.1749 19.742 17.2997 18.8668C16.4246 17.9917 15.2376 17.5 13.9999 17.5H6.99992C5.76224 17.5 4.57526 17.9917 3.70009 18.8668C2.82492 19.742 2.33325 20.929 2.33325 22.1667V24.5" stroke="#E2E8F0" stroke-width="2.75" stroke-linecap="round" stroke-linejoin="round"/>
<path d="M10.4999 12.8333C13.0772 12.8333 15.1666 10.744 15.1666 8.16667C15.1666 5.58934 13.0772 3.5 10.4999 3.5C7.92259 3.5 5.83325 5.58934 5.83325 8.16667C5.83325 10.744 7.92259 12.8333 10.4999 12.8333Z" stroke="#E2E8F0" stroke-width="2.75" stroke-linecap="round" stroke-linejoin="round"/>
<path d="M25.6667 24.4999V22.1666C25.666 21.1326 25.3218 20.1282 24.6883 19.311C24.0549 18.4938 23.1679 17.9101 22.1667 17.6516" stroke="#E2E8F0" stroke-width="2.75" stroke-linecap="round" stroke-linejoin="round"/>
<path d="M18.6667 3.65161C19.6706 3.90863 20.5603 4.49243 21.1957 5.31097C21.831 6.12952 22.1759 7.13625 22.1759 8.17244C22.1759 9.20864 21.831 10.2154 21.1957 11.0339C20.5603 11.8525 19.6706 12.4363 18.6667 12.6933" stroke="#E2E8F0" stroke-width="2.75" stroke-linecap="round" stroke-linejoin="round"/>
</svg>
